<mxfile host="app.diagrams.net" agent="Mozilla/5.0 (Windows NT 10.0; Win64; x64) AppleWebKit/537.36 (KHTML, like Gecko) Chrome/138.0.0.0 Safari/537.36" version="28.0.7">
  <diagram name="Page-1" id="Wabz76Teq1xErkAv1SUb">
    <mxGraphModel dx="1864" dy="758" grid="1" gridSize="10" guides="1" tooltips="1" connect="1" arrows="1" fold="1" page="1" pageScale="1" pageWidth="850" pageHeight="1100" math="0" shadow="0">
      <root>
        <mxCell id="0" />
        <mxCell id="1" parent="0" />
        <mxCell id="1SdRrZLTVSilBD2M-e8m-3" value="" style="rounded=1;whiteSpace=wrap;html=1;" parent="1" vertex="1">
          <mxGeometry x="390" y="230" width="150" height="440" as="geometry" />
        </mxCell>
        <mxCell id="1SdRrZLTVSilBD2M-e8m-4" value="Data Sources" style="text;strokeColor=none;align=center;fillColor=none;html=1;verticalAlign=middle;whiteSpace=wrap;rounded=0;" parent="1" vertex="1">
          <mxGeometry x="432" y="685" width="60" height="30" as="geometry" />
        </mxCell>
        <mxCell id="1SdRrZLTVSilBD2M-e8m-9" value="" style="rounded=0;whiteSpace=wrap;html=1;strokeColor=light-dark(#4284f3, #ededed);" parent="1" vertex="1">
          <mxGeometry x="769" y="170" width="2221" height="1050" as="geometry" />
        </mxCell>
        <mxCell id="1SdRrZLTVSilBD2M-e8m-10" value="" style="rounded=0;whiteSpace=wrap;html=1;" parent="1" vertex="1">
          <mxGeometry x="836" y="280" width="224" height="210" as="geometry" />
        </mxCell>
        <mxCell id="1SdRrZLTVSilBD2M-e8m-11" value="&lt;font style=&quot;font-size: 18px; color: light-dark(rgb(66, 123, 243), rgb(237, 237, 237));&quot;&gt;&lt;b&gt;Data Ingestion&lt;/b&gt;&lt;/font&gt;" style="text;strokeColor=none;align=center;fillColor=none;html=1;verticalAlign=middle;whiteSpace=wrap;rounded=0;" parent="1" vertex="1">
          <mxGeometry x="837" y="289" width="225" height="30" as="geometry" />
        </mxCell>
        <mxCell id="0cGlMy6sPyTtkc-nOIxk-47" style="edgeStyle=orthogonalEdgeStyle;rounded=0;orthogonalLoop=1;jettySize=auto;html=1;exitX=1;exitY=0.5;exitDx=0;exitDy=0;" edge="1" parent="1" source="1SdRrZLTVSilBD2M-e8m-13" target="0cGlMy6sPyTtkc-nOIxk-45">
          <mxGeometry relative="1" as="geometry" />
        </mxCell>
        <mxCell id="1SdRrZLTVSilBD2M-e8m-13" value="" style="fillColor=#ffffff;strokeColor=#dddddd;shadow=1;strokeWidth=1;rounded=1;absoluteArcSize=1;arcSize=2;" parent="1" vertex="1">
          <mxGeometry x="852" y="353" width="180" height="50" as="geometry" />
        </mxCell>
        <mxCell id="1SdRrZLTVSilBD2M-e8m-14" value="&lt;font color=&quot;#000000&quot;&gt;Raw Landing Bucket&lt;/font&gt;&lt;br&gt;Cloud Storage" style="editableCssRules=.*;html=1;fontColor=#999999;shape=image;verticalLabelPosition=middle;verticalAlign=middle;labelPosition=right;align=left;spacingLeft=20;part=1;points=[];imageAspect=0;image=data:image/svg+xml,PHN2ZyB4bWxucz0iaHR0cDovL3d3dy53My5vcmcvMjAwMC9zdmciIHhtbG5zOnY9Imh0dHBzOi8vdmVjdGEuaW8vbmFubyIgd2lkdGg9IjIwIiBoZWlnaHQ9IjE2IiB2aWV3Qm94PSIwIDAgMjAgMTYiPiYjeGE7CTxzdHlsZSB0eXBlPSJ0ZXh0L2NzcyI+JiN4YTsJLnN0MHtmaWxsOiM0Mjg1ZjQ7fSYjeGE7CS5zdDF7ZmlsbDojNjY5ZGY2O30mI3hhOwkuc3Qye2ZpbGw6I2FlY2JmYTt9JiN4YTsJLnN0M3tmaWxsOiNmZmY7fSYjeGE7CTwvc3R5bGU+JiN4YTsJPHBhdGggY2xhc3M9InN0MiIgZD0iTTAgMGgyMHY3SDB6Ii8+JiN4YTsJPHBhdGggY2xhc3M9InN0MSIgZD0iTTE4IDBoMnY3aC0yeiIvPiYjeGE7CTxwYXRoIGNsYXNzPSJzdDAiIGQ9Ik0xOCA3bDItN2gtMnoiLz4mI3hhOwk8cGF0aCBjbGFzcz0ic3QxIiBkPSJNMCAwaDJ2N0gweiIvPiYjeGE7CTxnIGNsYXNzPSJzdDMiPiYjeGE7CQk8cGF0aCBkPSJNNCAzaDZ2MUg0eiIvPiYjeGE7CQk8cmVjdCB4PSIxMyIgeT0iMiIgd2lkdGg9IjMiIGhlaWdodD0iMyIgcng9IjEuNSIvPiYjeGE7CTwvZz4mI3hhOwk8cGF0aCBjbGFzcz0ic3QyIiBkPSJNMCA5aDIwdjdIMHoiLz4mI3hhOwk8cGF0aCBjbGFzcz0ic3QxIiBkPSJNMTggOWgydjdoLTJ6Ii8+JiN4YTsJPHBhdGggY2xhc3M9InN0MCIgZD0iTTE4IDE2bDItN2gtMnoiLz4mI3hhOwk8cGF0aCBjbGFzcz0ic3QxIiBkPSJNMCA5aDJ2N0gweiIvPiYjeGE7CTxnIGNsYXNzPSJzdDMiPiYjeGE7CQk8cGF0aCBkPSJNNCAxMmg2djFINHoiLz4mI3hhOwkJPHJlY3QgeD0iMTMiIHk9IjExIiB3aWR0aD0iMyIgaGVpZ2h0PSIzIiByeD0iMS41Ii8+JiN4YTsJPC9nPiYjeGE7PC9zdmc+;" parent="1SdRrZLTVSilBD2M-e8m-13" vertex="1">
          <mxGeometry width="30" height="24" relative="1" as="geometry">
            <mxPoint x="15" y="18" as="offset" />
          </mxGeometry>
        </mxCell>
        <mxCell id="1SdRrZLTVSilBD2M-e8m-16" value="" style="image;aspect=fixed;html=1;points=[];align=center;fontSize=12;image=img/lib/azure2/databases/SQL_Server.svg;" parent="1" vertex="1">
          <mxGeometry x="435" y="323" width="68" height="68" as="geometry" />
        </mxCell>
        <mxCell id="1SdRrZLTVSilBD2M-e8m-17" value="" style="points=[];aspect=fixed;html=1;align=center;shadow=0;dashed=0;fillColor=#FF6A00;strokeColor=none;shape=mxgraph.alibaba_cloud.nas_network_attached_storage;" parent="1" vertex="1">
          <mxGeometry x="443.5" y="238" width="43" height="43" as="geometry" />
        </mxCell>
        <mxCell id="1SdRrZLTVSilBD2M-e8m-18" value="SQL Server" style="text;strokeColor=none;align=center;fillColor=none;html=1;verticalAlign=middle;whiteSpace=wrap;rounded=0;" parent="1" vertex="1">
          <mxGeometry x="434.5" y="401" width="60" height="30" as="geometry" />
        </mxCell>
        <mxCell id="1SdRrZLTVSilBD2M-e8m-19" value="NAS Drive" style="text;strokeColor=none;align=center;fillColor=none;html=1;verticalAlign=middle;whiteSpace=wrap;rounded=0;" parent="1" vertex="1">
          <mxGeometry x="437" y="281" width="60" height="30" as="geometry" />
        </mxCell>
        <mxCell id="1SdRrZLTVSilBD2M-e8m-20" value="" style="image;aspect=fixed;html=1;points=[];align=center;fontSize=12;image=img/lib/azure2/databases/Oracle_Database.svg;" parent="1" vertex="1">
          <mxGeometry x="428" y="450" width="68" height="68" as="geometry" />
        </mxCell>
        <mxCell id="1SdRrZLTVSilBD2M-e8m-21" value="Oracle Databases" style="text;strokeColor=none;align=center;fillColor=none;html=1;verticalAlign=middle;whiteSpace=wrap;rounded=0;" parent="1" vertex="1">
          <mxGeometry x="440" y="525" width="60" height="30" as="geometry" />
        </mxCell>
        <mxCell id="1SdRrZLTVSilBD2M-e8m-22" value="DB2" style="shape=rect;fillColor=#0F62FE;aspect=fixed;resizable=0;labelPosition=center;verticalLabelPosition=bottom;align=center;verticalAlign=top;strokeColor=none;fontSize=14;" parent="1" vertex="1">
          <mxGeometry x="443.5" y="570.75" width="48" height="48" as="geometry" />
        </mxCell>
        <mxCell id="1SdRrZLTVSilBD2M-e8m-23" value="" style="fillColor=#ffffff;strokeColor=none;dashed=0;outlineConnect=0;html=1;labelPosition=center;verticalLabelPosition=bottom;verticalAlign=top;part=1;movable=0;resizable=0;rotatable=0;shape=mxgraph.ibm_cloud.ibm--db2" parent="1SdRrZLTVSilBD2M-e8m-22" vertex="1">
          <mxGeometry width="24" height="24" relative="1" as="geometry">
            <mxPoint x="12" y="12" as="offset" />
          </mxGeometry>
        </mxCell>
        <mxCell id="1SdRrZLTVSilBD2M-e8m-28" value="" style="fillColor=#ffffff;strokeColor=#dddddd;shadow=1;strokeWidth=1;rounded=1;absoluteArcSize=1;arcSize=2;" parent="1" vertex="1">
          <mxGeometry x="854" y="418" width="180" height="60" as="geometry" />
        </mxCell>
        <mxCell id="1SdRrZLTVSilBD2M-e8m-29" value="&lt;font color=&quot;#000000&quot;&gt;Data Ingestion&lt;/font&gt;&lt;br&gt;Cloud Data Fusion" style="editableCssRules=.*;html=1;fontColor=#999999;shape=image;verticalLabelPosition=middle;verticalAlign=middle;labelPosition=right;align=left;spacingLeft=20;part=1;points=[];imageAspect=0;image=data:image/svg+xml,PHN2ZyB4bWxucz0iaHR0cDovL3d3dy53My5vcmcvMjAwMC9zdmciIHhtbG5zOnY9Imh0dHBzOi8vdmVjdGEuaW8vbmFubyIgd2lkdGg9IjM3Ny4wNDk2OTgzMjc3ODkyNiIgaGVpZ2h0PSIzNzcuMjkxNTcwNzE1Nzg5NzYiIHZpZXdCb3g9IjAuMTMxMDAwNTE4Nzk4ODI4MTIgLTAuMTIxMDAwMDA2Nzk0OTI5NSA5OS43NjEwMDE1ODY5MTQwNiA5OS44MjQ5OTY5NDgyNDIxOSI+JiN4YTs8c3R5bGUgdHlwZT0idGV4dC9jc3MiPiYjeGE7CS5zdDB7ZmlsbDojNjY5ZGY2O30mI3hhOwkuc3Qxe2ZpbGw6IzQyODVmNDt9JiN4YTsJLnN0MntmaWxsOiNhZWNiZmE7fSYjeGE7PC9zdHlsZT4mI3hhOwk8cGF0aCBjbGFzcz0ic3QwIiBkPSJNODAuNTkzIDE5LjE4djIwLjE5OWgxOS4yOTlWOS41M2MwLTIuNTM3LS45NzktNC44NDYtMi41OC02LjU2OHptLTkuOTA4IDYxLjIyNUgxOS40MzFMMy40NSA5Ny4zMzdjMS42OTUgMS40NzQgMy45MDggMi4zNjcgNi4zMzEgMi4zNjdoNzAuNTU1YzIuODczIDAgNS40NTMtMS4yNTYgNy4yMjEtMy4yNDh6Ii8+JiN4YTsJPHBhdGggY2xhc3M9InN0MSIgZD0iTTg3LjU3MyA5Ni40MzdjMS41MDEtMS43MDEgMi40MTMtMy45MzUgMi40MTMtNi4zODJWNjAuMjA0SDcwLjY4NXYyMC4yMDF6Ii8+JiN4YTsJPHBhdGggY2xhc3M9InN0MiIgZD0iTTE5LjQzMSA4MC40MDVWMjkuMzRoMjAuNTc4VjEwLjA0SDkuNzgxYy01LjMzIDAtOS42NSA0LjMyMS05LjY1IDkuNjV2NzAuMzY1Yy4wMDEgMi45MDYgMS4yODYgNS41MTMgMy4zMiA3LjI4MXptNzcuODgtNzcuNDQzQzk1LjU1IDEuMDY2IDkzLjAzNi0uMTIgOTAuMjQ0LS4xMjFINTkuOTUxVjE5LjE4aDIwLjY0M3oiLz4mI3hhOzwvc3ZnPg==;" parent="1SdRrZLTVSilBD2M-e8m-28" vertex="1">
          <mxGeometry width="30" height="30" relative="1" as="geometry">
            <mxPoint x="15" y="15" as="offset" />
          </mxGeometry>
        </mxCell>
        <mxCell id="1SdRrZLTVSilBD2M-e8m-44" value="Dataplex" style="sketch=0;html=1;verticalAlign=top;labelPosition=center;verticalLabelPosition=bottom;align=center;spacingTop=-6;fontSize=11;fontStyle=1;fontColor=#999999;shape=image;aspect=fixed;imageAspect=0;image=data:image/svg+xml,PHN2ZyB4bWxucz0iaHR0cDovL3d3dy53My5vcmcvMjAwMC9zdmciIGlkPSJzdmcxMTkyNDEiIHZlcnNpb249IjEuMSIgdmlld0JveD0iMCAwIDI2NS4yMzA0NyAyODcuNzcxNDgiIGhlaWdodD0iMjg3Ljc3MTQ4bW0iIHdpZHRoPSIyNjUuMjMwNDdtbSI+JiN4YTsgICYjeGE7ICA8ZGVmcyBpZD0iZGVmczExOTIzOCIvPiYjeGE7ICA8ZyB0cmFuc2Zvcm09InRyYW5zbGF0ZSgyNS41NDQ5MjIsLTUuNzEyODkwNikiIGlkPSJsYXllcjEiPiYjeGE7ICAgIDxwYXRoIGQ9Im0gMjExLjAwMzkxLDE4OS44NzMwNSBjIC0xNS43NDAzMSwwIC0yOC42ODM2LDEyLjk0MzI5IC0yOC42ODM2LDI4LjY4MzU5IDAsMTUuNzQwMzEgMTIuOTQzMjksMjguNjgxNjQgMjguNjgzNiwyOC42ODE2NCAxNS43NDAzLDAgMjguNjgxNjQsLTEyLjk0MTMzIDI4LjY4MTY0LC0yOC42ODE2NCAwLC0xNS43NDAzIC0xMi45NDEzNCwtMjguNjgzNTkgLTI4LjY4MTY0LC0yOC42ODM1OSB6IE0gMy4wMzMyMDMxLDUxLjQ0OTIxOSBjIC0xNS42ODMyMDUxLDAgLTI4LjU3ODEyNTEsMTIuODk0OTIgLTI4LjU3ODEyNTEsMjguNTc4MTI1IDRlLTYsMTUuNjgzMjAyIDEyLjg5NDkyMywyOC41ODAwNzYgMjguNTc4MTI1MSwyOC41ODAwNzYgMTUuNjgzMjAxOSwwIDI4LjU4MDA3MzksLTEyLjg5Njg3NCAyOC41ODAwNzc5LC0yOC41ODAwNzYgMCwtMTUuNjgzMjA1IC0xMi44OTY4NzMsLTI4LjU3ODEyNSAtMjguNTgwMDc3OSwtMjguNTc4MTI1IHogTSAxMDcuNzcxNDgsNS43MTI4OTA2IDQ1LjU4Mzk4NCw0Mi4zODY3MTkgNTcuMjY3NTc4LDYyLjE5OTIxOSA5Ni40NDMzNTksMzkuMDk1NzAzIFYgMTI4LjI1MzkxIEwgMjQuOTE5OTIyLDgwLjAyNzM0NCAxMi4wNjA1NDcsOTkuMDk3NjU2IDg2LjY3NTc4MSwxNDkuNDA4MiAxMy45OTQxNDEsMTk4LjIwMTE3IFYgMTMyLjU5NTcgSCAtOS4wMDU4NTk0IHYgOTAuOTUzMTMgbCAxMTcuMTA1NDY5NCw2OS45MzU1NCA1OS42Nzc3MywtMzUuOTc0NiAtMTEuODc1LC0xOS42OTcyNyAtMzYuNDU4OTgsMjEuOTc2NTYgdiAtODguMjg3MTEgbCA3MC4wMDk3Niw0Ny4yMDUwOCAxMi44NTc0MywtMTkuMDcwMzEgLTc0LjQzMTY0LC01MC4xODc1IDczLjkxMDE1LC00OS42MTcxODkgdiA2Ni41ODAwNzkgaCAyMyBWIDc0LjkxNDA2MiBaIG0gMTEuNjcxODgsMzMuNjIzMDQ2NCA2OS43NSw0MS4yNDgwNDcgLTY5Ljc1LDQ2LjgyNjE3NiB6IE0gOTYuNDQzMzU5LDE3MC41NTQ2OSB2IDg5LjE3OTY4IEwgMjYuMTQyNTc4LDIxNy43NSBaIiBzdHlsZT0iY29sb3I6IzAwMDAwMDtvcGFjaXR5OjE7ZmlsbDojNTk4NmYyO2ZpbGwtb3BhY2l0eToxO3N0cm9rZS1saW5lam9pbjpyb3VuZDstaW5rc2NhcGUtc3Ryb2tlOm5vbmUiIGlkPSJwYXRoMTE5NDA3LTQiLz4mI3hhOyAgICA8cGF0aCBkPSJtIDMuMDMzMTk3Niw2OC40NDkyMTkgYyA2LjQ5NTczNjcsMCAxMS41ODAwODM0LDUuMDgyMzkzIDExLjU4MDA4MzQsMTEuNTc4MTI1IDAsNi40OTU3MzEgLTUuMDg0MzQ2NywxMS41ODAwNzggLTExLjU4MDA4MzQsMTEuNTgwMDc4IC02LjQ5NTcyNjcsMCAtMTEuNTc4MTIzNCwtNS4wODQzNDcgLTExLjU3ODEyMzQsLTExLjU4MDA3OCAwLC02LjQ5NTczMiA1LjA4MjM5NjcsLTExLjU3ODEyNSAxMS41NzgxMjM0LC0xMS41NzgxMjUgeiBNIDIxMS4wMDM5MSwyMDYuODczMDUgYyA2LjU1MjgzLDAgMTEuNjgxNjQsNS4xMzA3NiAxMS42ODE2NCwxMS42ODM1OSAwLDYuNTUyODMgLTUuMTI4ODEsMTEuNjgxNjQgLTExLjY4MTY0LDExLjY4MTY0IC02LjU1Mjg0LDAgLTExLjY4MzYsLTUuMTI4ODEgLTExLjY4MzYsLTExLjY4MTY0IDAsLTYuNTUyODMgNS4xMzA3NiwtMTEuNjgzNTkgMTEuNjgzNiwtMTEuNjgzNTkgeiBNIDEwNy43NjM2Nyw5OC41NTQ2ODcgYyAtMjcuNzcyNTc4LDNlLTYgLTUwLjUyMzQzMywyMi43NTA4NjMgLTUwLjUyMzQzMyw1MC41MjM0MzMgMCwyNy43NzI1OCAyMi43NTA4NTUsNTAuNTIxNDkgNTAuNTIzNDMzLDUwLjUyMTQ5IDI3Ljc3MjU4LDAgNTAuNTIzNDQsLTIyLjc0ODkxIDUwLjUyMzQ0LC01MC41MjE0OSAwLC0yNy43NzI1NyAtMjIuNzUwODYsLTUwLjUyMzQzNyAtNTAuNTIzNDQsLTUwLjUyMzQzMyB6IiBzdHlsZT0iY29sb3I6IzAwMDAwMDtvcGFjaXR5OjE7ZmlsbDojZmZmZmZmO2ZpbGwtb3BhY2l0eToxO3N0cm9rZS1saW5lam9pbjpyb3VuZDstaW5rc2NhcGUtc3Ryb2tlOm5vbmUiIGlkPSJwYXRoMTM3Mjg5Ii8+JiN4YTsgICAgPHBhdGggaWQ9InBhdGgxMjAyMDMiIGQ9Im0gMTA3Ljc2MzY3LDEyMC41NTQ2OSBjIDE1Ljg4MjkxLC0xMGUtNiAyOC41MjM0NCwxMi42NDA1MyAyOC41MjM0NCwyOC41MjM0MyAwLDE1Ljg4MjkxIC0xMi42NDA1MywyOC41MjE0OSAtMjguNTIzNDQsMjguNTIxNDkgLTE1Ljg4MjkwNCwwIC0yOC41MjM0MzgsLTEyLjYzODU4IC0yOC41MjM0MzgsLTI4LjUyMTQ5IDAsLTE1Ljg4MjkgMTIuNjQwNTM0LC0yOC41MjM0MyAyOC41MjM0MzgsLTI4LjUyMzQzIHoiIHN0eWxlPSJjb2xvcjojMDAwMDAwO29wYWNpdHk6MTtmaWxsOiM1OTg2ZjI7ZmlsbC1vcGFjaXR5OjE7c3Ryb2tlLWxpbmVqb2luOnJvdW5kOy1pbmtzY2FwZS1zdHJva2U6bm9uZSIvPiYjeGE7ICA8L2c+JiN4YTs8L3N2Zz4=;" parent="1" vertex="1">
          <mxGeometry x="1354" y="699" width="39" height="42" as="geometry" />
        </mxCell>
        <mxCell id="1SdRrZLTVSilBD2M-e8m-46" value="" style="rounded=0;whiteSpace=wrap;html=1;strokeColor=#007FFF;" parent="1" vertex="1">
          <mxGeometry x="799" y="630" width="1911" height="510" as="geometry" />
        </mxCell>
        <mxCell id="1SdRrZLTVSilBD2M-e8m-55" value="&lt;font style=&quot;font-size: 18px; color: light-dark(rgb(66, 123, 243), rgb(237, 237, 237));&quot;&gt;&lt;b&gt;Error/ Failure Handling&lt;/b&gt;&lt;/font&gt;" style="text;strokeColor=none;align=center;fillColor=none;html=1;verticalAlign=middle;whiteSpace=wrap;rounded=0;" parent="1" vertex="1">
          <mxGeometry x="807" y="1100" width="225" height="30" as="geometry" />
        </mxCell>
        <mxCell id="1SdRrZLTVSilBD2M-e8m-91" value="" style="rounded=0;whiteSpace=wrap;html=1;strokeColor=#007FFF;" parent="1" vertex="1">
          <mxGeometry x="1357" y="277" width="1363" height="203" as="geometry" />
        </mxCell>
        <mxCell id="1SdRrZLTVSilBD2M-e8m-92" value="" style="fillColor=#ffffff;strokeColor=#dddddd;shadow=1;strokeWidth=1;rounded=1;absoluteArcSize=1;arcSize=2;" parent="1" vertex="1">
          <mxGeometry x="1470" y="340" width="150" height="70" as="geometry" />
        </mxCell>
        <mxCell id="1SdRrZLTVSilBD2M-e8m-93" value="&lt;font color=&quot;#000000&quot;&gt;Staging Tables&lt;/font&gt;&lt;br&gt;BigQuery" style="editableCssRules=.*;html=1;fontColor=#999999;shape=image;verticalLabelPosition=middle;verticalAlign=middle;labelPosition=right;align=left;spacingLeft=20;part=1;points=[];imageAspect=0;image=data:image/svg+xml,PHN2ZyB4bWxucz0iaHR0cDovL3d3dy53My5vcmcvMjAwMC9zdmciIHhtbG5zOnY9Imh0dHBzOi8vdmVjdGEuaW8vbmFubyIgd2lkdGg9IjIwLjAwMTA0NTIyNzA1MDc4IiBoZWlnaHQ9IjIwLjAwMTA0NTIyNzA1MDc4IiBmaWxsLXJ1bGU9ImV2ZW5vZGQiIHZpZXdCb3g9IjAgMCAyMC4wMDEwNDUyMjcwNTA3OCAyMC4wMDEwNDUyMjcwNTA3OCI+JiN4YTsJPHN0eWxlIHR5cGU9InRleHQvY3NzIj4mI3hhOwkuc3Qwe2ZpbGw6I2FlY2JmYTt9JiN4YTsJLnN0MXtmaWxsOiM2NjlkZjY7fSYjeGE7CS5zdDJ7ZmlsbDojNDI4NWY0O30mI3hhOwk8L3N0eWxlPiYjeGE7CTxwYXRoIGNsYXNzPSJzdDAiIGQ9Ik00LjczIDguODN2Mi42M2E0LjkxIDQuOTEgMCAwIDAgMS43MSAxLjc0VjguODN6Ii8+JiN4YTsJPHBhdGggY2xhc3M9InN0MSIgZD0iTTcuODkgNi40MXY3LjUzQTcuNjIgNy42MiAwIDAgMCA5IDE0YTggOCAwIDAgMCAxIDBWNi40MXoiLz4mI3hhOwk8cGF0aCBjbGFzcz0ic3QwIiBkPSJNMTEuNjQgOS44NnYzLjI5YTUgNSAwIDAgMCAxLjctMS44MlY5Ljg2eiIvPiYjeGE7CTxwYXRoIGNsYXNzPSJzdDIiIGQ9Ik0xNS43NCAxNC4zMmwtMS40MiAxLjQyYS40Mi40MiAwIDAgMCAwIC42bDMuNTQgMy41NGEuNDIuNDIgMCAwIDAgLjU5IDBsMS40My0xLjQzYS40Mi40MiAwIDAgMCAwLS41OWwtMy41NC0zLjU0YS40Mi40MiAwIDAgMC0uNiAwIi8+JiN4YTsJPHBhdGggY2xhc3M9InN0MSIgZD0iTTkgMGE5IDkgMCAxIDAgMCAxOEE5IDkgMCAxIDAgOSAwbTAgMTUuNjlhNi42OCA2LjY4IDAgMCAxIC4wMDctMTMuMzYgNi42OCA2LjY4IDAgMCAxIDQuNzI3IDExLjQwM0E2LjY4IDYuNjggMCAwIDEgOSAxNS42OSIvPiYjeGE7PC9zdmc+;" parent="1SdRrZLTVSilBD2M-e8m-92" vertex="1">
          <mxGeometry width="30" height="30" relative="1" as="geometry">
            <mxPoint x="15" y="15" as="offset" />
          </mxGeometry>
        </mxCell>
        <mxCell id="1SdRrZLTVSilBD2M-e8m-97" style="edgeStyle=orthogonalEdgeStyle;rounded=0;orthogonalLoop=1;jettySize=auto;html=1;exitX=1;exitY=0.5;exitDx=0;exitDy=0;entryX=0;entryY=0.75;entryDx=0;entryDy=0;" parent="1" source="1SdRrZLTVSilBD2M-e8m-28" target="1SdRrZLTVSilBD2M-e8m-92" edge="1">
          <mxGeometry relative="1" as="geometry" />
        </mxCell>
        <mxCell id="1SdRrZLTVSilBD2M-e8m-116" value="Data Quality Checks" style="fillColor=#ffffff;strokeColor=#dddddd;shadow=1;strokeWidth=1;rounded=1;absoluteArcSize=1;arcSize=0;" parent="1" vertex="1">
          <mxGeometry x="1804" y="340" width="220" height="70" as="geometry" />
        </mxCell>
        <mxCell id="1SdRrZLTVSilBD2M-e8m-117" value="Dataplex" style="sketch=0;html=1;verticalAlign=top;labelPosition=center;verticalLabelPosition=bottom;align=center;spacingTop=-6;fontSize=11;fontStyle=1;fontColor=#999999;shape=image;aspect=fixed;imageAspect=0;image=data:image/svg+xml,PHN2ZyB4bWxucz0iaHR0cDovL3d3dy53My5vcmcvMjAwMC9zdmciIGlkPSJzdmcxMTkyNDEiIHZlcnNpb249IjEuMSIgdmlld0JveD0iMCAwIDI2NS4yMzA0NyAyODcuNzcxNDgiIGhlaWdodD0iMjg3Ljc3MTQ4bW0iIHdpZHRoPSIyNjUuMjMwNDdtbSI+JiN4YTsgICYjeGE7ICA8ZGVmcyBpZD0iZGVmczExOTIzOCIvPiYjeGE7ICA8ZyB0cmFuc2Zvcm09InRyYW5zbGF0ZSgyNS41NDQ5MjIsLTUuNzEyODkwNikiIGlkPSJsYXllcjEiPiYjeGE7ICAgIDxwYXRoIGQ9Im0gMjExLjAwMzkxLDE4OS44NzMwNSBjIC0xNS43NDAzMSwwIC0yOC42ODM2LDEyLjk0MzI5IC0yOC42ODM2LDI4LjY4MzU5IDAsMTUuNzQwMzEgMTIuOTQzMjksMjguNjgxNjQgMjguNjgzNiwyOC42ODE2NCAxNS43NDAzLDAgMjguNjgxNjQsLTEyLjk0MTMzIDI4LjY4MTY0LC0yOC42ODE2NCAwLC0xNS43NDAzIC0xMi45NDEzNCwtMjguNjgzNTkgLTI4LjY4MTY0LC0yOC42ODM1OSB6IE0gMy4wMzMyMDMxLDUxLjQ0OTIxOSBjIC0xNS42ODMyMDUxLDAgLTI4LjU3ODEyNTEsMTIuODk0OTIgLTI4LjU3ODEyNTEsMjguNTc4MTI1IDRlLTYsMTUuNjgzMjAyIDEyLjg5NDkyMywyOC41ODAwNzYgMjguNTc4MTI1MSwyOC41ODAwNzYgMTUuNjgzMjAxOSwwIDI4LjU4MDA3MzksLTEyLjg5Njg3NCAyOC41ODAwNzc5LC0yOC41ODAwNzYgMCwtMTUuNjgzMjA1IC0xMi44OTY4NzMsLTI4LjU3ODEyNSAtMjguNTgwMDc3OSwtMjguNTc4MTI1IHogTSAxMDcuNzcxNDgsNS43MTI4OTA2IDQ1LjU4Mzk4NCw0Mi4zODY3MTkgNTcuMjY3NTc4LDYyLjE5OTIxOSA5Ni40NDMzNTksMzkuMDk1NzAzIFYgMTI4LjI1MzkxIEwgMjQuOTE5OTIyLDgwLjAyNzM0NCAxMi4wNjA1NDcsOTkuMDk3NjU2IDg2LjY3NTc4MSwxNDkuNDA4MiAxMy45OTQxNDEsMTk4LjIwMTE3IFYgMTMyLjU5NTcgSCAtOS4wMDU4NTk0IHYgOTAuOTUzMTMgbCAxMTcuMTA1NDY5NCw2OS45MzU1NCA1OS42Nzc3MywtMzUuOTc0NiAtMTEuODc1LC0xOS42OTcyNyAtMzYuNDU4OTgsMjEuOTc2NTYgdiAtODguMjg3MTEgbCA3MC4wMDk3Niw0Ny4yMDUwOCAxMi44NTc0MywtMTkuMDcwMzEgLTc0LjQzMTY0LC01MC4xODc1IDczLjkxMDE1LC00OS42MTcxODkgdiA2Ni41ODAwNzkgaCAyMyBWIDc0LjkxNDA2MiBaIG0gMTEuNjcxODgsMzMuNjIzMDQ2NCA2OS43NSw0MS4yNDgwNDcgLTY5Ljc1LDQ2LjgyNjE3NiB6IE0gOTYuNDQzMzU5LDE3MC41NTQ2OSB2IDg5LjE3OTY4IEwgMjYuMTQyNTc4LDIxNy43NSBaIiBzdHlsZT0iY29sb3I6IzAwMDAwMDtvcGFjaXR5OjE7ZmlsbDojNTk4NmYyO2ZpbGwtb3BhY2l0eToxO3N0cm9rZS1saW5lam9pbjpyb3VuZDstaW5rc2NhcGUtc3Ryb2tlOm5vbmUiIGlkPSJwYXRoMTE5NDA3LTQiLz4mI3hhOyAgICA8cGF0aCBkPSJtIDMuMDMzMTk3Niw2OC40NDkyMTkgYyA2LjQ5NTczNjcsMCAxMS41ODAwODM0LDUuMDgyMzkzIDExLjU4MDA4MzQsMTEuNTc4MTI1IDAsNi40OTU3MzEgLTUuMDg0MzQ2NywxMS41ODAwNzggLTExLjU4MDA4MzQsMTEuNTgwMDc4IC02LjQ5NTcyNjcsMCAtMTEuNTc4MTIzNCwtNS4wODQzNDcgLTExLjU3ODEyMzQsLTExLjU4MDA3OCAwLC02LjQ5NTczMiA1LjA4MjM5NjcsLTExLjU3ODEyNSAxMS41NzgxMjM0LC0xMS41NzgxMjUgeiBNIDIxMS4wMDM5MSwyMDYuODczMDUgYyA2LjU1MjgzLDAgMTEuNjgxNjQsNS4xMzA3NiAxMS42ODE2NCwxMS42ODM1OSAwLDYuNTUyODMgLTUuMTI4ODEsMTEuNjgxNjQgLTExLjY4MTY0LDExLjY4MTY0IC02LjU1Mjg0LDAgLTExLjY4MzYsLTUuMTI4ODEgLTExLjY4MzYsLTExLjY4MTY0IDAsLTYuNTUyODMgNS4xMzA3NiwtMTEuNjgzNTkgMTEuNjgzNiwtMTEuNjgzNTkgeiBNIDEwNy43NjM2Nyw5OC41NTQ2ODcgYyAtMjcuNzcyNTc4LDNlLTYgLTUwLjUyMzQzMywyMi43NTA4NjMgLTUwLjUyMzQzMyw1MC41MjM0MzMgMCwyNy43NzI1OCAyMi43NTA4NTUsNTAuNTIxNDkgNTAuNTIzNDMzLDUwLjUyMTQ5IDI3Ljc3MjU4LDAgNTAuNTIzNDQsLTIyLjc0ODkxIDUwLjUyMzQ0LC01MC41MjE0OSAwLC0yNy43NzI1NyAtMjIuNzUwODYsLTUwLjUyMzQzNyAtNTAuNTIzNDQsLTUwLjUyMzQzMyB6IiBzdHlsZT0iY29sb3I6IzAwMDAwMDtvcGFjaXR5OjE7ZmlsbDojZmZmZmZmO2ZpbGwtb3BhY2l0eToxO3N0cm9rZS1saW5lam9pbjpyb3VuZDstaW5rc2NhcGUtc3Ryb2tlOm5vbmUiIGlkPSJwYXRoMTM3Mjg5Ii8+JiN4YTsgICAgPHBhdGggaWQ9InBhdGgxMjAyMDMiIGQ9Im0gMTA3Ljc2MzY3LDEyMC41NTQ2OSBjIDE1Ljg4MjkxLC0xMGUtNiAyOC41MjM0NCwxMi42NDA1MyAyOC41MjM0NCwyOC41MjM0MyAwLDE1Ljg4MjkxIC0xMi42NDA1MywyOC41MjE0OSAtMjguNTIzNDQsMjguNTIxNDkgLTE1Ljg4MjkwNCwwIC0yOC41MjM0MzgsLTEyLjYzODU4IC0yOC41MjM0MzgsLTI4LjUyMTQ5IDAsLTE1Ljg4MjkgMTIuNjQwNTM0LC0yOC41MjM0MyAyOC41MjM0MzgsLTI4LjUyMzQzIHoiIHN0eWxlPSJjb2xvcjojMDAwMDAwO29wYWNpdHk6MTtmaWxsOiM1OTg2ZjI7ZmlsbC1vcGFjaXR5OjE7c3Ryb2tlLWxpbmVqb2luOnJvdW5kOy1pbmtzY2FwZS1zdHJva2U6bm9uZSIvPiYjeGE7ICA8L2c+JiN4YTs8L3N2Zz4=;" parent="1" vertex="1">
          <mxGeometry x="1812" y="348" width="39" height="42" as="geometry" />
        </mxCell>
        <mxCell id="0cGlMy6sPyTtkc-nOIxk-96" style="edgeStyle=orthogonalEdgeStyle;rounded=0;orthogonalLoop=1;jettySize=auto;html=1;exitX=1;exitY=0.5;exitDx=0;exitDy=0;entryX=0;entryY=0.5;entryDx=0;entryDy=0;" edge="1" parent="1" source="1SdRrZLTVSilBD2M-e8m-132" target="1SdRrZLTVSilBD2M-e8m-143">
          <mxGeometry relative="1" as="geometry" />
        </mxCell>
        <mxCell id="1SdRrZLTVSilBD2M-e8m-132" value="Dataform: Transform &amp;amp; Load" style="rounded=0;whiteSpace=wrap;html=1;" parent="1" vertex="1">
          <mxGeometry x="2330" y="350" width="150" height="60" as="geometry" />
        </mxCell>
        <mxCell id="1SdRrZLTVSilBD2M-e8m-143" value="" style="fillColor=#ffffff;strokeColor=#dddddd;shadow=1;strokeWidth=1;rounded=1;absoluteArcSize=1;arcSize=2;" parent="1" vertex="1">
          <mxGeometry x="2556" y="350" width="130" height="60" as="geometry" />
        </mxCell>
        <mxCell id="1SdRrZLTVSilBD2M-e8m-144" value="&lt;font color=&quot;#000000&quot;&gt;Core Table&lt;/font&gt;&lt;br&gt;BigQuery" style="editableCssRules=.*;html=1;fontColor=#999999;shape=image;verticalLabelPosition=middle;verticalAlign=middle;labelPosition=right;align=left;spacingLeft=20;part=1;points=[];imageAspect=0;image=data:image/svg+xml,PHN2ZyB4bWxucz0iaHR0cDovL3d3dy53My5vcmcvMjAwMC9zdmciIHhtbG5zOnY9Imh0dHBzOi8vdmVjdGEuaW8vbmFubyIgd2lkdGg9IjIwLjAwMTA0NTIyNzA1MDc4IiBoZWlnaHQ9IjIwLjAwMTA0NTIyNzA1MDc4IiBmaWxsLXJ1bGU9ImV2ZW5vZGQiIHZpZXdCb3g9IjAgMCAyMC4wMDEwNDUyMjcwNTA3OCAyMC4wMDEwNDUyMjcwNTA3OCI+JiN4YTsJPHN0eWxlIHR5cGU9InRleHQvY3NzIj4mI3hhOwkuc3Qwe2ZpbGw6I2FlY2JmYTt9JiN4YTsJLnN0MXtmaWxsOiM2NjlkZjY7fSYjeGE7CS5zdDJ7ZmlsbDojNDI4NWY0O30mI3hhOwk8L3N0eWxlPiYjeGE7CTxwYXRoIGNsYXNzPSJzdDAiIGQ9Ik00LjczIDguODN2Mi42M2E0LjkxIDQuOTEgMCAwIDAgMS43MSAxLjc0VjguODN6Ii8+JiN4YTsJPHBhdGggY2xhc3M9InN0MSIgZD0iTTcuODkgNi40MXY3LjUzQTcuNjIgNy42MiAwIDAgMCA5IDE0YTggOCAwIDAgMCAxIDBWNi40MXoiLz4mI3hhOwk8cGF0aCBjbGFzcz0ic3QwIiBkPSJNMTEuNjQgOS44NnYzLjI5YTUgNSAwIDAgMCAxLjctMS44MlY5Ljg2eiIvPiYjeGE7CTxwYXRoIGNsYXNzPSJzdDIiIGQ9Ik0xNS43NCAxNC4zMmwtMS40MiAxLjQyYS40Mi40MiAwIDAgMCAwIC42bDMuNTQgMy41NGEuNDIuNDIgMCAwIDAgLjU5IDBsMS40My0xLjQzYS40Mi40MiAwIDAgMCAwLS41OWwtMy41NC0zLjU0YS40Mi40MiAwIDAgMC0uNiAwIi8+JiN4YTsJPHBhdGggY2xhc3M9InN0MSIgZD0iTTkgMGE5IDkgMCAxIDAgMCAxOEE5IDkgMCAxIDAgOSAwbTAgMTUuNjlhNi42OCA2LjY4IDAgMCAxIC4wMDctMTMuMzYgNi42OCA2LjY4IDAgMCAxIDQuNzI3IDExLjQwM0E2LjY4IDYuNjggMCAwIDEgOSAxNS42OSIvPiYjeGE7PC9zdmc+;" parent="1SdRrZLTVSilBD2M-e8m-143" vertex="1">
          <mxGeometry width="30" height="30" relative="1" as="geometry">
            <mxPoint x="15" y="15" as="offset" />
          </mxGeometry>
        </mxCell>
        <mxCell id="1SdRrZLTVSilBD2M-e8m-152" value="" style="rounded=0;whiteSpace=wrap;html=1;" parent="1" vertex="1">
          <mxGeometry x="2750" y="305" width="193" height="160" as="geometry" />
        </mxCell>
        <mxCell id="1SdRrZLTVSilBD2M-e8m-153" value="&lt;font style=&quot;font-size: 18px; color: light-dark(rgb(66, 123, 243), rgb(237, 237, 237));&quot;&gt;&lt;b&gt;Data Consumption&lt;/b&gt;&lt;/font&gt;" style="text;strokeColor=none;align=center;fillColor=none;html=1;verticalAlign=middle;whiteSpace=wrap;rounded=0;" parent="1" vertex="1">
          <mxGeometry x="2764" y="305" width="179" height="30" as="geometry" />
        </mxCell>
        <mxCell id="1SdRrZLTVSilBD2M-e8m-154" value="Bi Tool" style="rounded=0;whiteSpace=wrap;html=1;" parent="1" vertex="1">
          <mxGeometry x="2786.75" y="346.5" width="119.5" height="45" as="geometry" />
        </mxCell>
        <mxCell id="1SdRrZLTVSilBD2M-e8m-155" value="Marketing Team" style="rounded=0;whiteSpace=wrap;html=1;" parent="1" vertex="1">
          <mxGeometry x="2786.75" y="401" width="119.5" height="45" as="geometry" />
        </mxCell>
        <mxCell id="1SdRrZLTVSilBD2M-e8m-156" style="edgeStyle=orthogonalEdgeStyle;rounded=0;orthogonalLoop=1;jettySize=auto;html=1;exitX=1;exitY=0.25;exitDx=0;exitDy=0;entryX=0;entryY=0.25;entryDx=0;entryDy=0;" parent="1" source="1SdRrZLTVSilBD2M-e8m-143" target="1SdRrZLTVSilBD2M-e8m-154" edge="1">
          <mxGeometry relative="1" as="geometry" />
        </mxCell>
        <mxCell id="1SdRrZLTVSilBD2M-e8m-157" style="edgeStyle=orthogonalEdgeStyle;rounded=0;orthogonalLoop=1;jettySize=auto;html=1;exitX=1;exitY=0.75;exitDx=0;exitDy=0;entryX=0;entryY=0.5;entryDx=0;entryDy=0;" parent="1" source="1SdRrZLTVSilBD2M-e8m-143" target="1SdRrZLTVSilBD2M-e8m-155" edge="1">
          <mxGeometry relative="1" as="geometry" />
        </mxCell>
        <mxCell id="1SdRrZLTVSilBD2M-e8m-31" value="&lt;font style=&quot;font-size: 18px; color: light-dark(rgb(66, 123, 243), rgb(237, 237, 237));&quot;&gt;&lt;b&gt;ETL &amp;amp; Data Preparation&lt;/b&gt;&lt;/font&gt;" style="text;strokeColor=none;align=center;fillColor=none;html=1;verticalAlign=middle;whiteSpace=wrap;rounded=0;" parent="1" vertex="1">
          <mxGeometry x="1357" y="280" width="225" height="30" as="geometry" />
        </mxCell>
        <mxCell id="0cGlMy6sPyTtkc-nOIxk-1" value="" style="rounded=0;whiteSpace=wrap;html=1;" vertex="1" parent="1">
          <mxGeometry x="830" y="720" width="310" height="360" as="geometry" />
        </mxCell>
        <mxCell id="0cGlMy6sPyTtkc-nOIxk-13" style="edgeStyle=orthogonalEdgeStyle;rounded=0;orthogonalLoop=1;jettySize=auto;html=1;exitX=0.25;exitY=1;exitDx=0;exitDy=0;entryX=0.5;entryY=0;entryDx=0;entryDy=0;" edge="1" parent="1" source="0cGlMy6sPyTtkc-nOIxk-7" target="0cGlMy6sPyTtkc-nOIxk-9">
          <mxGeometry relative="1" as="geometry" />
        </mxCell>
        <mxCell id="0cGlMy6sPyTtkc-nOIxk-20" value="Failure alert" style="edgeLabel;html=1;align=center;verticalAlign=middle;resizable=0;points=[];" vertex="1" connectable="0" parent="0cGlMy6sPyTtkc-nOIxk-13">
          <mxGeometry x="-0.2364" y="4" relative="1" as="geometry">
            <mxPoint x="-36" y="126" as="offset" />
          </mxGeometry>
        </mxCell>
        <mxCell id="0cGlMy6sPyTtkc-nOIxk-7" value="" style="fillColor=#ffffff;strokeColor=#dddddd;shadow=1;strokeWidth=1;rounded=1;absoluteArcSize=1;arcSize=2;" vertex="1" parent="1">
          <mxGeometry x="870" y="750" width="240" height="60" as="geometry" />
        </mxCell>
        <mxCell id="0cGlMy6sPyTtkc-nOIxk-8" value="&lt;font color=&quot;#000000&quot;&gt;DAG to trigger Data Fusion&lt;/font&gt;&lt;br&gt;Cloud Composer" style="editableCssRules=.*;html=1;fontColor=#999999;shape=image;verticalLabelPosition=middle;verticalAlign=middle;labelPosition=right;align=left;spacingLeft=20;part=1;points=[];imageAspect=0;image=data:image/svg+xml,PHN2ZyB4bWxucz0iaHR0cDovL3d3dy53My5vcmcvMjAwMC9zdmciIHhtbG5zOnY9Imh0dHBzOi8vdmVjdGEuaW8vbmFubyIgd2lkdGg9IjE0LjY0MDAwMDM0MzMyMjc1NCIgaGVpZ2h0PSIyMCIgdmlld0JveD0iMCAwIDE0LjY0MDAwMDM0MzMyMjc1NCAyMCI+JiN4YTsJPHN0eWxlIHR5cGU9InRleHQvY3NzIj4mI3hhOwkuc3Qwe2ZpbGw6I2FlY2JmYTt9JiN4YTsJLnN0MXtmaWxsOiM0Mjg1ZjQ7fSYjeGE7CTwvc3R5bGU+JiN4YTsJPHBhdGggY2xhc3M9InN0MCIgZD0iTTAgMGgxNC42M3YzLjk0aC01LjN2NS4zM0g1LjM1VjMuOTZIMHoiLz4mI3hhOwk8cGF0aCBjbGFzcz0ic3QxIiBkPSJNMy45NSAxMC42N2g1LjM0VjIwSDUuMzV2LTUuMzVIMFY1LjM3aDMuOTV6TTE0LjY0IDIwSDEwLjdWNS4zNmgzLjk0eiIvPiYjeGE7CTxwYXRoIGNsYXNzPSJzdDAiIGQ9Ik0wIDE2LjA2aDMuOTJWMjBIMHoiLz4mI3hhOzwvc3ZnPg==;" vertex="1" parent="0cGlMy6sPyTtkc-nOIxk-7">
          <mxGeometry width="20" height="30" relative="1" as="geometry">
            <mxPoint x="19" y="15" as="offset" />
          </mxGeometry>
        </mxCell>
        <mxCell id="0cGlMy6sPyTtkc-nOIxk-9" value="" style="fillColor=#ffffff;strokeColor=#dddddd;shadow=1;strokeWidth=1;rounded=1;absoluteArcSize=1;arcSize=2;" vertex="1" parent="1">
          <mxGeometry x="865" y="870" width="130" height="60" as="geometry" />
        </mxCell>
        <mxCell id="0cGlMy6sPyTtkc-nOIxk-10" value="Cloud&#xa;Monitoring" style="editableCssRules=.*;html=1;fontColor=#999999;shape=image;verticalLabelPosition=middle;verticalAlign=middle;labelPosition=right;align=left;spacingLeft=20;part=1;points=[];imageAspect=0;image=data:image/svg+xml,PHN2ZyB4bWxucz0iaHR0cDovL3d3dy53My5vcmcvMjAwMC9zdmciIHhtbG5zOnY9Imh0dHBzOi8vdmVjdGEuaW8vbmFubyIgd2lkdGg9IjIwIiBoZWlnaHQ9IjEzLjUyOTk5OTczMjk3MTE5MSIgdmlld0JveD0iLTIuOTMyMDk3ODk3ODEyMDE0ZS05IC01LjI1ODAxNTA0MTgzNzk1NmUtMTUgMjAgMTMuNTI5OTk5NzMyOTcxMTkxIj4mI3hhOwk8c3R5bGUgdHlwZT0idGV4dC9jc3MiPiYjeGE7CS5zdDB7ZmlsbDojNDI4NWY0O30mI3hhOwkuc3Qxe2ZpbGw6IzY2OWRmNjt9JiN4YTsJPC9zdHlsZT4mI3hhOwk8cGF0aCBjbGFzcz0ic3QxIiBkPSJNOC44MyAxMC41OGgyLjMzdjIuNjRIOC44M3oiLz4mI3hhOwk8cGF0aCBjbGFzcz0ic3QwIiBkPSJNMTYuNDggOC42MWEuNTYuNTYgMCAwIDEtLjQtLjE3TDEyIDQuMjEgOS4yNiA3LjFhLjU3LjU3IDAgMCAxLS43Ni4wNUw2LjQyIDUuNDdsLTIuMiAyLjkyYS41Ni41NiAwIDAgMS0uNDUuMjJIMHYxLjcxYS43NS43NSAwIDAgMCAuNzQuNzVoMTguNTJhLjc1Ljc1IDAgMCAwIC43NC0uNzVWOC42MXoiLz4mI3hhOwk8cGF0aCBjbGFzcz0ic3QxIiBkPSJNMy41IDcuNWwyLjM4LTMuMTZhLjU1LjU1IDAgMCAxIC4zNy0uMjIuNjMuNjMgMCAwIDEgLjQyLjEybDIuMTIgMS43MiAyLjgtMi45NGEuNTQuNTQgMCAwIDEgLjQtLjE3aDBhLjU0LjU0IDAgMCAxIC40LjE3bDQuMzMgNC40OEgyMFYuNzRhLjc0Ljc0IDAgMCAwLS43NC0uNzRILjc0QS43NC43NCAwIDAgMCAwIC43NHY2LjgxeiIvPiYjeGE7CTxyZWN0IGNsYXNzPSJzdDAiIHg9IjYuNjciIHk9IjEyLjkyIiB3aWR0aD0iNi42NyIgaGVpZ2h0PSIuNjEiIHJ4PSIuMyIvPiYjeGE7PC9zdmc+;" vertex="1" parent="0cGlMy6sPyTtkc-nOIxk-9">
          <mxGeometry width="30" height="21" relative="1" as="geometry">
            <mxPoint x="15" y="19.5" as="offset" />
          </mxGeometry>
        </mxCell>
        <mxCell id="0cGlMy6sPyTtkc-nOIxk-33" style="edgeStyle=orthogonalEdgeStyle;rounded=0;orthogonalLoop=1;jettySize=auto;html=1;exitX=1;exitY=0.25;exitDx=0;exitDy=0;entryX=0;entryY=0.25;entryDx=0;entryDy=0;" edge="1" parent="1" source="0cGlMy6sPyTtkc-nOIxk-11" target="0cGlMy6sPyTtkc-nOIxk-30">
          <mxGeometry relative="1" as="geometry">
            <Array as="points">
              <mxPoint x="1180" y="1015" />
              <mxPoint x="1180" y="654" />
            </Array>
          </mxGeometry>
        </mxCell>
        <mxCell id="0cGlMy6sPyTtkc-nOIxk-11" value="Data Operations Team" style="rounded=0;whiteSpace=wrap;html=1;" vertex="1" parent="1">
          <mxGeometry x="900" y="1000" width="169" height="60" as="geometry" />
        </mxCell>
        <mxCell id="0cGlMy6sPyTtkc-nOIxk-17" style="edgeStyle=orthogonalEdgeStyle;rounded=0;orthogonalLoop=1;jettySize=auto;html=1;exitX=0.75;exitY=0;exitDx=0;exitDy=0;entryX=0.699;entryY=1.038;entryDx=0;entryDy=0;entryPerimeter=0;" edge="1" parent="1" source="0cGlMy6sPyTtkc-nOIxk-11" target="0cGlMy6sPyTtkc-nOIxk-7">
          <mxGeometry relative="1" as="geometry" />
        </mxCell>
        <mxCell id="0cGlMy6sPyTtkc-nOIxk-19" value="Manual Re-run" style="edgeLabel;html=1;align=center;verticalAlign=middle;resizable=0;points=[];" vertex="1" connectable="0" parent="0cGlMy6sPyTtkc-nOIxk-17">
          <mxGeometry x="0.5316" y="2" relative="1" as="geometry">
            <mxPoint y="1" as="offset" />
          </mxGeometry>
        </mxCell>
        <mxCell id="0cGlMy6sPyTtkc-nOIxk-24" style="edgeStyle=orthogonalEdgeStyle;rounded=0;orthogonalLoop=1;jettySize=auto;html=1;exitX=0.25;exitY=0;exitDx=0;exitDy=0;entryX=0.422;entryY=1.077;entryDx=0;entryDy=0;entryPerimeter=0;" edge="1" parent="1" source="0cGlMy6sPyTtkc-nOIxk-7" target="1SdRrZLTVSilBD2M-e8m-28">
          <mxGeometry relative="1" as="geometry" />
        </mxCell>
        <mxCell id="0cGlMy6sPyTtkc-nOIxk-25" value="Orchestrates" style="edgeLabel;html=1;align=center;verticalAlign=middle;resizable=0;points=[];" vertex="1" connectable="0" parent="0cGlMy6sPyTtkc-nOIxk-24">
          <mxGeometry x="0.2294" y="-2" relative="1" as="geometry">
            <mxPoint y="-1" as="offset" />
          </mxGeometry>
        </mxCell>
        <mxCell id="0cGlMy6sPyTtkc-nOIxk-26" style="edgeStyle=orthogonalEdgeStyle;rounded=0;orthogonalLoop=1;jettySize=auto;html=1;exitX=0.75;exitY=1;exitDx=0;exitDy=0;entryX=0.5;entryY=0;entryDx=0;entryDy=0;" edge="1" parent="1" source="1SdRrZLTVSilBD2M-e8m-28" target="0cGlMy6sPyTtkc-nOIxk-7">
          <mxGeometry relative="1" as="geometry" />
        </mxCell>
        <mxCell id="0cGlMy6sPyTtkc-nOIxk-27" value="Fails" style="edgeLabel;html=1;align=center;verticalAlign=middle;resizable=0;points=[];" vertex="1" connectable="0" parent="0cGlMy6sPyTtkc-nOIxk-26">
          <mxGeometry x="-0.078" y="-1" relative="1" as="geometry">
            <mxPoint as="offset" />
          </mxGeometry>
        </mxCell>
        <mxCell id="0cGlMy6sPyTtkc-nOIxk-29" style="edgeStyle=orthogonalEdgeStyle;rounded=0;orthogonalLoop=1;jettySize=auto;html=1;exitX=0.5;exitY=1;exitDx=0;exitDy=0;entryX=0.17;entryY=-0.058;entryDx=0;entryDy=0;entryPerimeter=0;" edge="1" parent="1" source="0cGlMy6sPyTtkc-nOIxk-9" target="0cGlMy6sPyTtkc-nOIxk-11">
          <mxGeometry relative="1" as="geometry" />
        </mxCell>
        <mxCell id="0cGlMy6sPyTtkc-nOIxk-30" value="Inform Business/ Stake-holders" style="rounded=0;whiteSpace=wrap;html=1;" vertex="1" parent="1">
          <mxGeometry x="1652" y="642" width="200" height="48" as="geometry" />
        </mxCell>
        <mxCell id="0cGlMy6sPyTtkc-nOIxk-32" value="" style="rounded=0;whiteSpace=wrap;html=1;" vertex="1" parent="1">
          <mxGeometry x="1260" y="720" width="270" height="360" as="geometry" />
        </mxCell>
        <mxCell id="0cGlMy6sPyTtkc-nOIxk-42" value="" style="fillColor=#ffffff;strokeColor=#dddddd;shadow=1;strokeWidth=1;rounded=1;absoluteArcSize=1;arcSize=2;" vertex="1" parent="1">
          <mxGeometry x="1280" y="780" width="130" height="60" as="geometry" />
        </mxCell>
        <mxCell id="0cGlMy6sPyTtkc-nOIxk-43" value="Cloud&#xa;Monitoring" style="editableCssRules=.*;html=1;fontColor=#999999;shape=image;verticalLabelPosition=middle;verticalAlign=middle;labelPosition=right;align=left;spacingLeft=20;part=1;points=[];imageAspect=0;image=data:image/svg+xml,PHN2ZyB4bWxucz0iaHR0cDovL3d3dy53My5vcmcvMjAwMC9zdmciIHhtbG5zOnY9Imh0dHBzOi8vdmVjdGEuaW8vbmFubyIgd2lkdGg9IjIwIiBoZWlnaHQ9IjEzLjUyOTk5OTczMjk3MTE5MSIgdmlld0JveD0iLTIuOTMyMDk3ODk3ODEyMDE0ZS05IC01LjI1ODAxNTA0MTgzNzk1NmUtMTUgMjAgMTMuNTI5OTk5NzMyOTcxMTkxIj4mI3hhOwk8c3R5bGUgdHlwZT0idGV4dC9jc3MiPiYjeGE7CS5zdDB7ZmlsbDojNDI4NWY0O30mI3hhOwkuc3Qxe2ZpbGw6IzY2OWRmNjt9JiN4YTsJPC9zdHlsZT4mI3hhOwk8cGF0aCBjbGFzcz0ic3QxIiBkPSJNOC44MyAxMC41OGgyLjMzdjIuNjRIOC44M3oiLz4mI3hhOwk8cGF0aCBjbGFzcz0ic3QwIiBkPSJNMTYuNDggOC42MWEuNTYuNTYgMCAwIDEtLjQtLjE3TDEyIDQuMjEgOS4yNiA3LjFhLjU3LjU3IDAgMCAxLS43Ni4wNUw2LjQyIDUuNDdsLTIuMiAyLjkyYS41Ni41NiAwIDAgMS0uNDUuMjJIMHYxLjcxYS43NS43NSAwIDAgMCAuNzQuNzVoMTguNTJhLjc1Ljc1IDAgMCAwIC43NC0uNzVWOC42MXoiLz4mI3hhOwk8cGF0aCBjbGFzcz0ic3QxIiBkPSJNMy41IDcuNWwyLjM4LTMuMTZhLjU1LjU1IDAgMCAxIC4zNy0uMjIuNjMuNjMgMCAwIDEgLjQyLjEybDIuMTIgMS43MiAyLjgtMi45NGEuNTQuNTQgMCAwIDEgLjQtLjE3aDBhLjU0LjU0IDAgMCAxIC40LjE3bDQuMzMgNC40OEgyMFYuNzRhLjc0Ljc0IDAgMCAwLS43NC0uNzRILjc0QS43NC43NCAwIDAgMCAwIC43NHY2LjgxeiIvPiYjeGE7CTxyZWN0IGNsYXNzPSJzdDAiIHg9IjYuNjciIHk9IjEyLjkyIiB3aWR0aD0iNi42NyIgaGVpZ2h0PSIuNjEiIHJ4PSIuMyIvPiYjeGE7PC9zdmc+;" vertex="1" parent="0cGlMy6sPyTtkc-nOIxk-42">
          <mxGeometry width="30" height="21" relative="1" as="geometry">
            <mxPoint x="15" y="19.5" as="offset" />
          </mxGeometry>
        </mxCell>
        <mxCell id="0cGlMy6sPyTtkc-nOIxk-48" style="edgeStyle=orthogonalEdgeStyle;rounded=0;orthogonalLoop=1;jettySize=auto;html=1;exitX=0.5;exitY=1;exitDx=0;exitDy=0;entryX=0.25;entryY=0;entryDx=0;entryDy=0;" edge="1" parent="1" source="0cGlMy6sPyTtkc-nOIxk-45" target="0cGlMy6sPyTtkc-nOIxk-42">
          <mxGeometry relative="1" as="geometry" />
        </mxCell>
        <mxCell id="0cGlMy6sPyTtkc-nOIxk-49" value="Failure alert" style="edgeLabel;html=1;align=center;verticalAlign=middle;resizable=0;points=[];" vertex="1" connectable="0" parent="0cGlMy6sPyTtkc-nOIxk-48">
          <mxGeometry x="-0.4036" y="-2" relative="1" as="geometry">
            <mxPoint x="77" y="431" as="offset" />
          </mxGeometry>
        </mxCell>
        <mxCell id="0cGlMy6sPyTtkc-nOIxk-62" value="Fails" style="edgeLabel;html=1;align=center;verticalAlign=middle;resizable=0;points=[];" vertex="1" connectable="0" parent="0cGlMy6sPyTtkc-nOIxk-48">
          <mxGeometry x="-0.2556" y="4" relative="1" as="geometry">
            <mxPoint y="1" as="offset" />
          </mxGeometry>
        </mxCell>
        <mxCell id="0cGlMy6sPyTtkc-nOIxk-50" style="edgeStyle=orthogonalEdgeStyle;rounded=0;orthogonalLoop=1;jettySize=auto;html=1;exitX=1;exitY=0.5;exitDx=0;exitDy=0;entryX=0;entryY=0.25;entryDx=0;entryDy=0;" edge="1" parent="1" source="0cGlMy6sPyTtkc-nOIxk-45" target="1SdRrZLTVSilBD2M-e8m-92">
          <mxGeometry relative="1" as="geometry" />
        </mxCell>
        <mxCell id="0cGlMy6sPyTtkc-nOIxk-51" value="Success" style="edgeLabel;html=1;align=center;verticalAlign=middle;resizable=0;points=[];" vertex="1" connectable="0" parent="0cGlMy6sPyTtkc-nOIxk-50">
          <mxGeometry x="0.0344" y="1" relative="1" as="geometry">
            <mxPoint as="offset" />
          </mxGeometry>
        </mxCell>
        <mxCell id="0cGlMy6sPyTtkc-nOIxk-45" value="" style="fillColor=#ffffff;strokeColor=#dddddd;shadow=1;strokeWidth=1;rounded=1;absoluteArcSize=1;arcSize=2;" vertex="1" parent="1">
          <mxGeometry x="1130" y="293" width="171" height="60" as="geometry" />
        </mxCell>
        <mxCell id="0cGlMy6sPyTtkc-nOIxk-46" value="&lt;font color=&quot;#000000&quot;&gt;DAG to Sense&lt;/font&gt;&lt;br&gt;Cloud Composer" style="editableCssRules=.*;html=1;fontColor=#999999;shape=image;verticalLabelPosition=middle;verticalAlign=middle;labelPosition=right;align=left;spacingLeft=20;part=1;points=[];imageAspect=0;image=data:image/svg+xml,PHN2ZyB4bWxucz0iaHR0cDovL3d3dy53My5vcmcvMjAwMC9zdmciIHhtbG5zOnY9Imh0dHBzOi8vdmVjdGEuaW8vbmFubyIgd2lkdGg9IjE0LjY0MDAwMDM0MzMyMjc1NCIgaGVpZ2h0PSIyMCIgdmlld0JveD0iMCAwIDE0LjY0MDAwMDM0MzMyMjc1NCAyMCI+JiN4YTsJPHN0eWxlIHR5cGU9InRleHQvY3NzIj4mI3hhOwkuc3Qwe2ZpbGw6I2FlY2JmYTt9JiN4YTsJLnN0MXtmaWxsOiM0Mjg1ZjQ7fSYjeGE7CTwvc3R5bGU+JiN4YTsJPHBhdGggY2xhc3M9InN0MCIgZD0iTTAgMGgxNC42M3YzLjk0aC01LjN2NS4zM0g1LjM1VjMuOTZIMHoiLz4mI3hhOwk8cGF0aCBjbGFzcz0ic3QxIiBkPSJNMy45NSAxMC42N2g1LjM0VjIwSDUuMzV2LTUuMzVIMFY1LjM3aDMuOTV6TTE0LjY0IDIwSDEwLjdWNS4zNmgzLjk0eiIvPiYjeGE7CTxwYXRoIGNsYXNzPSJzdDAiIGQ9Ik0wIDE2LjA2aDMuOTJWMjBIMHoiLz4mI3hhOzwvc3ZnPg==;" vertex="1" parent="0cGlMy6sPyTtkc-nOIxk-45">
          <mxGeometry width="20" height="30" relative="1" as="geometry">
            <mxPoint x="19" y="15" as="offset" />
          </mxGeometry>
        </mxCell>
        <mxCell id="0cGlMy6sPyTtkc-nOIxk-56" style="edgeStyle=orthogonalEdgeStyle;rounded=0;orthogonalLoop=1;jettySize=auto;html=1;exitX=1;exitY=0.25;exitDx=0;exitDy=0;entryX=0;entryY=0.5;entryDx=0;entryDy=0;" edge="1" parent="1" source="0cGlMy6sPyTtkc-nOIxk-52" target="0cGlMy6sPyTtkc-nOIxk-30">
          <mxGeometry relative="1" as="geometry" />
        </mxCell>
        <mxCell id="0cGlMy6sPyTtkc-nOIxk-52" value="Data Operations Team" style="rounded=0;whiteSpace=wrap;html=1;" vertex="1" parent="1">
          <mxGeometry x="1301" y="990" width="169" height="60" as="geometry" />
        </mxCell>
        <mxCell id="0cGlMy6sPyTtkc-nOIxk-53" style="edgeStyle=orthogonalEdgeStyle;rounded=0;orthogonalLoop=1;jettySize=auto;html=1;exitX=0.25;exitY=1;exitDx=0;exitDy=0;entryX=0.157;entryY=0.008;entryDx=0;entryDy=0;entryPerimeter=0;" edge="1" parent="1" source="0cGlMy6sPyTtkc-nOIxk-42" target="0cGlMy6sPyTtkc-nOIxk-52">
          <mxGeometry relative="1" as="geometry" />
        </mxCell>
        <mxCell id="0cGlMy6sPyTtkc-nOIxk-54" style="edgeStyle=orthogonalEdgeStyle;rounded=0;orthogonalLoop=1;jettySize=auto;html=1;exitX=0.75;exitY=0;exitDx=0;exitDy=0;entryX=0.907;entryY=1.019;entryDx=0;entryDy=0;entryPerimeter=0;" edge="1" parent="1" source="0cGlMy6sPyTtkc-nOIxk-52" target="0cGlMy6sPyTtkc-nOIxk-45">
          <mxGeometry relative="1" as="geometry">
            <Array as="points">
              <mxPoint x="1428" y="510" />
              <mxPoint x="1285" y="510" />
            </Array>
          </mxGeometry>
        </mxCell>
        <mxCell id="0cGlMy6sPyTtkc-nOIxk-55" value="Manual Re-run" style="edgeLabel;html=1;align=center;verticalAlign=middle;resizable=0;points=[];" vertex="1" connectable="0" parent="0cGlMy6sPyTtkc-nOIxk-54">
          <mxGeometry x="-0.7366" relative="1" as="geometry">
            <mxPoint y="-1" as="offset" />
          </mxGeometry>
        </mxCell>
        <mxCell id="0cGlMy6sPyTtkc-nOIxk-57" value="" style="rounded=0;whiteSpace=wrap;html=1;" vertex="1" parent="1">
          <mxGeometry x="1900" y="720" width="290" height="360" as="geometry" />
        </mxCell>
        <mxCell id="0cGlMy6sPyTtkc-nOIxk-98" style="edgeStyle=orthogonalEdgeStyle;rounded=0;orthogonalLoop=1;jettySize=auto;html=1;exitX=0.5;exitY=1;exitDx=0;exitDy=0;entryX=0.5;entryY=0;entryDx=0;entryDy=0;" edge="1" parent="1" source="0cGlMy6sPyTtkc-nOIxk-63" target="0cGlMy6sPyTtkc-nOIxk-97">
          <mxGeometry relative="1" as="geometry" />
        </mxCell>
        <mxCell id="0cGlMy6sPyTtkc-nOIxk-63" value="" style="fillColor=#ffffff;strokeColor=#dddddd;shadow=1;strokeWidth=1;rounded=1;absoluteArcSize=1;arcSize=2;" vertex="1" parent="1">
          <mxGeometry x="1920.5" y="741" width="240" height="60" as="geometry" />
        </mxCell>
        <mxCell id="0cGlMy6sPyTtkc-nOIxk-64" value="&lt;font color=&quot;#000000&quot;&gt;DAG to trigger Dataplex&lt;/font&gt;&lt;br&gt;Cloud Composer" style="editableCssRules=.*;html=1;fontColor=#999999;shape=image;verticalLabelPosition=middle;verticalAlign=middle;labelPosition=right;align=left;spacingLeft=20;part=1;points=[];imageAspect=0;image=data:image/svg+xml,PHN2ZyB4bWxucz0iaHR0cDovL3d3dy53My5vcmcvMjAwMC9zdmciIHhtbG5zOnY9Imh0dHBzOi8vdmVjdGEuaW8vbmFubyIgd2lkdGg9IjE0LjY0MDAwMDM0MzMyMjc1NCIgaGVpZ2h0PSIyMCIgdmlld0JveD0iMCAwIDE0LjY0MDAwMDM0MzMyMjc1NCAyMCI+JiN4YTsJPHN0eWxlIHR5cGU9InRleHQvY3NzIj4mI3hhOwkuc3Qwe2ZpbGw6I2FlY2JmYTt9JiN4YTsJLnN0MXtmaWxsOiM0Mjg1ZjQ7fSYjeGE7CTwvc3R5bGU+JiN4YTsJPHBhdGggY2xhc3M9InN0MCIgZD0iTTAgMGgxNC42M3YzLjk0aC01LjN2NS4zM0g1LjM1VjMuOTZIMHoiLz4mI3hhOwk8cGF0aCBjbGFzcz0ic3QxIiBkPSJNMy45NSAxMC42N2g1LjM0VjIwSDUuMzV2LTUuMzVIMFY1LjM3aDMuOTV6TTE0LjY0IDIwSDEwLjdWNS4zNmgzLjk0eiIvPiYjeGE7CTxwYXRoIGNsYXNzPSJzdDAiIGQ9Ik0wIDE2LjA2aDMuOTJWMjBIMHoiLz4mI3hhOzwvc3ZnPg==;" vertex="1" parent="0cGlMy6sPyTtkc-nOIxk-63">
          <mxGeometry width="20" height="30" relative="1" as="geometry">
            <mxPoint x="19" y="15" as="offset" />
          </mxGeometry>
        </mxCell>
        <mxCell id="0cGlMy6sPyTtkc-nOIxk-65" style="edgeStyle=orthogonalEdgeStyle;rounded=0;orthogonalLoop=1;jettySize=auto;html=1;exitX=0.5;exitY=1;exitDx=0;exitDy=0;entryX=0.115;entryY=0.097;entryDx=0;entryDy=0;entryPerimeter=0;" edge="1" parent="1" source="1SdRrZLTVSilBD2M-e8m-92" target="0cGlMy6sPyTtkc-nOIxk-63">
          <mxGeometry relative="1" as="geometry" />
        </mxCell>
        <mxCell id="0cGlMy6sPyTtkc-nOIxk-69" style="edgeStyle=orthogonalEdgeStyle;rounded=0;orthogonalLoop=1;jettySize=auto;html=1;exitX=0.5;exitY=0;exitDx=0;exitDy=0;entryX=0.842;entryY=1.033;entryDx=0;entryDy=0;entryPerimeter=0;" edge="1" parent="1" source="0cGlMy6sPyTtkc-nOIxk-63" target="1SdRrZLTVSilBD2M-e8m-116">
          <mxGeometry relative="1" as="geometry">
            <Array as="points">
              <mxPoint x="2041" y="540" />
              <mxPoint x="1989" y="540" />
            </Array>
          </mxGeometry>
        </mxCell>
        <mxCell id="0cGlMy6sPyTtkc-nOIxk-74" style="edgeStyle=orthogonalEdgeStyle;rounded=0;orthogonalLoop=1;jettySize=auto;html=1;exitX=0;exitY=0.5;exitDx=0;exitDy=0;entryX=0.5;entryY=1;entryDx=0;entryDy=0;" edge="1" parent="1" source="0cGlMy6sPyTtkc-nOIxk-71" target="0cGlMy6sPyTtkc-nOIxk-30">
          <mxGeometry relative="1" as="geometry" />
        </mxCell>
        <mxCell id="0cGlMy6sPyTtkc-nOIxk-71" value="Data Operations Team" style="rounded=0;whiteSpace=wrap;html=1;" vertex="1" parent="1">
          <mxGeometry x="1955" y="990" width="169" height="60" as="geometry" />
        </mxCell>
        <mxCell id="0cGlMy6sPyTtkc-nOIxk-95" style="edgeStyle=orthogonalEdgeStyle;rounded=0;orthogonalLoop=1;jettySize=auto;html=1;exitX=0.5;exitY=0;exitDx=0;exitDy=0;" edge="1" parent="1" source="0cGlMy6sPyTtkc-nOIxk-77" target="1SdRrZLTVSilBD2M-e8m-132">
          <mxGeometry relative="1" as="geometry" />
        </mxCell>
        <mxCell id="0cGlMy6sPyTtkc-nOIxk-77" value="" style="rounded=0;whiteSpace=wrap;html=1;" vertex="1" parent="1">
          <mxGeometry x="2280" y="720" width="290" height="360" as="geometry" />
        </mxCell>
        <mxCell id="0cGlMy6sPyTtkc-nOIxk-87" style="edgeStyle=orthogonalEdgeStyle;rounded=0;orthogonalLoop=1;jettySize=auto;html=1;exitX=0.25;exitY=1;exitDx=0;exitDy=0;entryX=0.5;entryY=0;entryDx=0;entryDy=0;" edge="1" parent="1" source="0cGlMy6sPyTtkc-nOIxk-78" target="0cGlMy6sPyTtkc-nOIxk-84">
          <mxGeometry relative="1" as="geometry" />
        </mxCell>
        <mxCell id="0cGlMy6sPyTtkc-nOIxk-78" value="" style="fillColor=#ffffff;strokeColor=#dddddd;shadow=1;strokeWidth=1;rounded=1;absoluteArcSize=1;arcSize=2;" vertex="1" parent="1">
          <mxGeometry x="2310" y="740" width="240" height="60" as="geometry" />
        </mxCell>
        <mxCell id="0cGlMy6sPyTtkc-nOIxk-79" value="&lt;font color=&quot;#000000&quot;&gt;DAG to trigger Dataform&lt;/font&gt;&lt;br&gt;Cloud Composer" style="editableCssRules=.*;html=1;fontColor=#999999;shape=image;verticalLabelPosition=middle;verticalAlign=middle;labelPosition=right;align=left;spacingLeft=20;part=1;points=[];imageAspect=0;image=data:image/svg+xml,PHN2ZyB4bWxucz0iaHR0cDovL3d3dy53My5vcmcvMjAwMC9zdmciIHhtbG5zOnY9Imh0dHBzOi8vdmVjdGEuaW8vbmFubyIgd2lkdGg9IjE0LjY0MDAwMDM0MzMyMjc1NCIgaGVpZ2h0PSIyMCIgdmlld0JveD0iMCAwIDE0LjY0MDAwMDM0MzMyMjc1NCAyMCI+JiN4YTsJPHN0eWxlIHR5cGU9InRleHQvY3NzIj4mI3hhOwkuc3Qwe2ZpbGw6I2FlY2JmYTt9JiN4YTsJLnN0MXtmaWxsOiM0Mjg1ZjQ7fSYjeGE7CTwvc3R5bGU+JiN4YTsJPHBhdGggY2xhc3M9InN0MCIgZD0iTTAgMGgxNC42M3YzLjk0aC01LjN2NS4zM0g1LjM1VjMuOTZIMHoiLz4mI3hhOwk8cGF0aCBjbGFzcz0ic3QxIiBkPSJNMy45NSAxMC42N2g1LjM0VjIwSDUuMzV2LTUuMzVIMFY1LjM3aDMuOTV6TTE0LjY0IDIwSDEwLjdWNS4zNmgzLjk0eiIvPiYjeGE7CTxwYXRoIGNsYXNzPSJzdDAiIGQ9Ik0wIDE2LjA2aDMuOTJWMjBIMHoiLz4mI3hhOzwvc3ZnPg==;" vertex="1" parent="0cGlMy6sPyTtkc-nOIxk-78">
          <mxGeometry width="20" height="30" relative="1" as="geometry">
            <mxPoint x="19" y="15" as="offset" />
          </mxGeometry>
        </mxCell>
        <mxCell id="0cGlMy6sPyTtkc-nOIxk-83" style="edgeStyle=orthogonalEdgeStyle;rounded=0;orthogonalLoop=1;jettySize=auto;html=1;exitX=1;exitY=0.75;exitDx=0;exitDy=0;entryX=0;entryY=0.25;entryDx=0;entryDy=0;" edge="1" parent="1" source="1SdRrZLTVSilBD2M-e8m-116" target="0cGlMy6sPyTtkc-nOIxk-78">
          <mxGeometry relative="1" as="geometry">
            <Array as="points">
              <mxPoint x="2270" y="393" />
              <mxPoint x="2270" y="755" />
            </Array>
          </mxGeometry>
        </mxCell>
        <mxCell id="0cGlMy6sPyTtkc-nOIxk-84" value="" style="fillColor=#ffffff;strokeColor=#dddddd;shadow=1;strokeWidth=1;rounded=1;absoluteArcSize=1;arcSize=2;" vertex="1" parent="1">
          <mxGeometry x="2300" y="870" width="130" height="60" as="geometry" />
        </mxCell>
        <mxCell id="0cGlMy6sPyTtkc-nOIxk-85" value="Cloud&#xa;Monitoring" style="editableCssRules=.*;html=1;fontColor=#999999;shape=image;verticalLabelPosition=middle;verticalAlign=middle;labelPosition=right;align=left;spacingLeft=20;part=1;points=[];imageAspect=0;image=data:image/svg+xml,PHN2ZyB4bWxucz0iaHR0cDovL3d3dy53My5vcmcvMjAwMC9zdmciIHhtbG5zOnY9Imh0dHBzOi8vdmVjdGEuaW8vbmFubyIgd2lkdGg9IjIwIiBoZWlnaHQ9IjEzLjUyOTk5OTczMjk3MTE5MSIgdmlld0JveD0iLTIuOTMyMDk3ODk3ODEyMDE0ZS05IC01LjI1ODAxNTA0MTgzNzk1NmUtMTUgMjAgMTMuNTI5OTk5NzMyOTcxMTkxIj4mI3hhOwk8c3R5bGUgdHlwZT0idGV4dC9jc3MiPiYjeGE7CS5zdDB7ZmlsbDojNDI4NWY0O30mI3hhOwkuc3Qxe2ZpbGw6IzY2OWRmNjt9JiN4YTsJPC9zdHlsZT4mI3hhOwk8cGF0aCBjbGFzcz0ic3QxIiBkPSJNOC44MyAxMC41OGgyLjMzdjIuNjRIOC44M3oiLz4mI3hhOwk8cGF0aCBjbGFzcz0ic3QwIiBkPSJNMTYuNDggOC42MWEuNTYuNTYgMCAwIDEtLjQtLjE3TDEyIDQuMjEgOS4yNiA3LjFhLjU3LjU3IDAgMCAxLS43Ni4wNUw2LjQyIDUuNDdsLTIuMiAyLjkyYS41Ni41NiAwIDAgMS0uNDUuMjJIMHYxLjcxYS43NS43NSAwIDAgMCAuNzQuNzVoMTguNTJhLjc1Ljc1IDAgMCAwIC43NC0uNzVWOC42MXoiLz4mI3hhOwk8cGF0aCBjbGFzcz0ic3QxIiBkPSJNMy41IDcuNWwyLjM4LTMuMTZhLjU1LjU1IDAgMCAxIC4zNy0uMjIuNjMuNjMgMCAwIDEgLjQyLjEybDIuMTIgMS43MiAyLjgtMi45NGEuNTQuNTQgMCAwIDEgLjQtLjE3aDBhLjU0LjU0IDAgMCAxIC40LjE3bDQuMzMgNC40OEgyMFYuNzRhLjc0Ljc0IDAgMCAwLS43NC0uNzRILjc0QS43NC43NCAwIDAgMCAwIC43NHY2LjgxeiIvPiYjeGE7CTxyZWN0IGNsYXNzPSJzdDAiIHg9IjYuNjciIHk9IjEyLjkyIiB3aWR0aD0iNi42NyIgaGVpZ2h0PSIuNjEiIHJ4PSIuMyIvPiYjeGE7PC9zdmc+;" vertex="1" parent="0cGlMy6sPyTtkc-nOIxk-84">
          <mxGeometry width="30" height="21" relative="1" as="geometry">
            <mxPoint x="15" y="19.5" as="offset" />
          </mxGeometry>
        </mxCell>
        <mxCell id="0cGlMy6sPyTtkc-nOIxk-92" style="edgeStyle=orthogonalEdgeStyle;rounded=0;orthogonalLoop=1;jettySize=auto;html=1;exitX=0;exitY=0.25;exitDx=0;exitDy=0;entryX=1;entryY=0.75;entryDx=0;entryDy=0;" edge="1" parent="1" source="0cGlMy6sPyTtkc-nOIxk-86" target="0cGlMy6sPyTtkc-nOIxk-30">
          <mxGeometry relative="1" as="geometry">
            <Array as="points">
              <mxPoint x="2220" y="1015" />
              <mxPoint x="2220" y="678" />
            </Array>
          </mxGeometry>
        </mxCell>
        <mxCell id="0cGlMy6sPyTtkc-nOIxk-86" value="Data Operations Team" style="rounded=0;whiteSpace=wrap;html=1;" vertex="1" parent="1">
          <mxGeometry x="2345.5" y="1000" width="169" height="60" as="geometry" />
        </mxCell>
        <mxCell id="0cGlMy6sPyTtkc-nOIxk-88" style="edgeStyle=orthogonalEdgeStyle;rounded=0;orthogonalLoop=1;jettySize=auto;html=1;exitX=0.5;exitY=1;exitDx=0;exitDy=0;entryX=0.116;entryY=0.023;entryDx=0;entryDy=0;entryPerimeter=0;" edge="1" parent="1" source="0cGlMy6sPyTtkc-nOIxk-84" target="0cGlMy6sPyTtkc-nOIxk-86">
          <mxGeometry relative="1" as="geometry" />
        </mxCell>
        <mxCell id="0cGlMy6sPyTtkc-nOIxk-89" style="edgeStyle=orthogonalEdgeStyle;rounded=0;orthogonalLoop=1;jettySize=auto;html=1;exitX=0.75;exitY=0;exitDx=0;exitDy=0;entryX=0.684;entryY=0.983;entryDx=0;entryDy=0;entryPerimeter=0;" edge="1" parent="1" source="0cGlMy6sPyTtkc-nOIxk-86" target="0cGlMy6sPyTtkc-nOIxk-78">
          <mxGeometry relative="1" as="geometry" />
        </mxCell>
        <mxCell id="0cGlMy6sPyTtkc-nOIxk-97" value="Cloud&#xa;Functions" style="sketch=0;html=1;verticalAlign=top;labelPosition=center;verticalLabelPosition=bottom;align=center;spacingTop=-6;fontSize=11;fontStyle=1;fontColor=#999999;shape=image;aspect=fixed;imageAspect=0;image=data:image/svg+xml,PHN2ZyB4bWxucz0iaHR0cDovL3d3dy53My5vcmcvMjAwMC9zdmciIHhtbG5zOnY9Imh0dHBzOi8vdmVjdGEuaW8vbmFubyIgd2lkdGg9IjIwIiBoZWlnaHQ9IjE5Ljk4OTk5OTc3MTExODE2NCIgdmlld0JveD0iMCAwIDIwIDE5Ljk4OTk5OTc3MTExODE2NCI+JiN4YTsJPHN0eWxlIHR5cGU9InRleHQvY3NzIj4mI3hhOwkuc3Qwe2ZpbGw6IzQyODVmNDt9JiN4YTsJLnN0MXtmaWxsOiM2NjlkZjY7fSYjeGE7CS5zdDJ7ZmlsbDojYWVjYmZhO30mI3hhOwk8L3N0eWxlPiYjeGE7CTxwYXRoIGNsYXNzPSJzdDEiIGQ9Ik0zIDMuOTlMMCA2LjQydjcuMTNsMyAyLjQ0eiIvPiYjeGE7CTxwYXRoIGNsYXNzPSJzdDAiIGQ9Ik0zIDMuOTlsLTMgNCAzLTJ6bS0zIDhsMyA0di0yeiIvPiYjeGE7CTxwYXRoIGNsYXNzPSJzdDIiIGQ9Ik0wIDE1Ljk5bDQgNCAyLTItNi02em0uMDEtOEw1Ljk5IDJsLTItMkwwIDMuOTl6Ii8+JiN4YTsJPHBhdGggY2xhc3M9InN0MSIgZD0iTTE3IDE2bDMtMi40MlY2LjQ0TDE3IDR6Ii8+JiN4YTsJPHBhdGggY2xhc3M9InN0MCIgZD0iTTE3IDE2bDMtNC0zIDJ6bTMtOGwtMy00djJ6Ii8+JiN4YTsJPGcgY2xhc3M9InN0MiI+JiN4YTsJCTxwYXRoIGQ9Ik0yMCA0bC00LTQtMiAyIDYgNnptLS4wMSA4bC01Ljk4IDUuOTkgMiAyTDIwIDE2eiIvPiYjeGE7CQk8Y2lyY2xlIGN4PSI2IiBjeT0iOS45OSIgcj0iMSIvPiYjeGE7CQk8Y2lyY2xlIGN4PSIxMCIgY3k9IjkuOTkiIHI9IjEiLz4mI3hhOwkJPGNpcmNsZSBjeD0iMTMuOTkiIGN5PSI5Ljk5IiByPSIxIi8+JiN4YTsJPC9nPiYjeGE7PC9zdmc+;" vertex="1" parent="1">
          <mxGeometry x="2018.5" y="868" width="42" height="34" as="geometry" />
        </mxCell>
        <mxCell id="0cGlMy6sPyTtkc-nOIxk-99" style="edgeStyle=orthogonalEdgeStyle;rounded=0;orthogonalLoop=1;jettySize=auto;html=1;exitX=0.5;exitY=1;exitDx=0;exitDy=0;entryX=0.5;entryY=0;entryDx=0;entryDy=0;" edge="1" parent="1">
          <mxGeometry relative="1" as="geometry">
            <mxPoint x="2041" y="930" as="sourcePoint" />
            <mxPoint x="2040" y="997" as="targetPoint" />
          </mxGeometry>
        </mxCell>
        <mxCell id="0cGlMy6sPyTtkc-nOIxk-100" value="Send notifications" style="edgeLabel;html=1;align=center;verticalAlign=middle;resizable=0;points=[];" vertex="1" connectable="0" parent="0cGlMy6sPyTtkc-nOIxk-99">
          <mxGeometry x="0.0281" y="-5" relative="1" as="geometry">
            <mxPoint y="-1" as="offset" />
          </mxGeometry>
        </mxCell>
      </root>
    </mxGraphModel>
  </diagram>
</mxfile>
